<mxfile host="app.diagrams.net" agent="Mozilla/5.0 (Windows NT 10.0; Win64; x64) AppleWebKit/537.36 (KHTML, like Gecko) Chrome/132.0.0.0 Safari/537.36 Edg/132.0.0.0" version="26.0.7">
  <diagram name="Page-1" id="7e0a89b8-554c-2b80-1dc8-d5c74ca68de4">
    <mxGraphModel dx="786" dy="455" grid="1" gridSize="10" guides="1" tooltips="1" connect="1" arrows="1" fold="1" page="1" pageScale="1" pageWidth="1100" pageHeight="850" background="none" math="0" shadow="0">
      <root>
        <mxCell id="0" />
        <mxCell id="1" parent="0" />
        <mxCell id="hghtYMn4fOt6xb_53WXP-1" value="MEGA" style="whiteSpace=wrap;html=1;aspect=fixed;" parent="1" vertex="1">
          <mxGeometry x="269.5" y="210" width="80" height="80" as="geometry" />
        </mxCell>
        <mxCell id="hghtYMn4fOt6xb_53WXP-10" value="" style="rounded=0;orthogonalLoop=1;jettySize=auto;html=1;startArrow=oval;startFill=1;endArrow=oval;endFill=1;exitX=0;exitY=0.8;exitDx=0;exitDy=0;entryX=0.25;entryY=0;entryDx=0;entryDy=0;" parent="1" target="hghtYMn4fOt6xb_53WXP-1" edge="1">
          <mxGeometry x="0.0496" y="-5" relative="1" as="geometry">
            <mxPoint x="194.5" y="57" as="sourcePoint" />
            <mxPoint x="290" y="190" as="targetPoint" />
            <mxPoint as="offset" />
          </mxGeometry>
        </mxCell>
        <mxCell id="hghtYMn4fOt6xb_53WXP-89" value="52" style="edgeLabel;html=1;align=center;verticalAlign=middle;resizable=0;points=[];" parent="hghtYMn4fOt6xb_53WXP-10" vertex="1" connectable="0">
          <mxGeometry x="0.7855" y="-2" relative="1" as="geometry">
            <mxPoint as="offset" />
          </mxGeometry>
        </mxCell>
        <mxCell id="hghtYMn4fOt6xb_53WXP-3" value="INCREMENT&lt;div&gt;GREEN&lt;br&gt;&lt;div&gt;&lt;br&gt;&lt;/div&gt;&lt;div&gt;&lt;br&gt;&lt;/div&gt;&lt;div&gt;&lt;br&gt;&lt;/div&gt;&lt;/div&gt;" style="html=1;shape=mxgraph.electrical.electro-mechanical.pushbutton;aspect=fixed;elSwitchState=off;" parent="1" vertex="1">
          <mxGeometry x="194.5" y="40" width="75" height="20" as="geometry" />
        </mxCell>
        <mxCell id="hghtYMn4fOt6xb_53WXP-4" value="DECREMENT&lt;div&gt;YELLOW&lt;br&gt;&lt;div&gt;&lt;br&gt;&lt;/div&gt;&lt;div&gt;&lt;br&gt;&lt;/div&gt;&lt;div&gt;&lt;br&gt;&lt;/div&gt;&lt;/div&gt;" style="html=1;shape=mxgraph.electrical.electro-mechanical.pushbutton;aspect=fixed;elSwitchState=off;" parent="1" vertex="1">
          <mxGeometry x="302" y="40" width="75" height="20" as="geometry" />
        </mxCell>
        <mxCell id="hghtYMn4fOt6xb_53WXP-5" value="SELECT&lt;div&gt;BLUE&lt;/div&gt;&lt;div&gt;&lt;br&gt;&lt;/div&gt;&lt;div&gt;&lt;br&gt;&lt;/div&gt;&lt;div&gt;&lt;br&gt;&lt;/div&gt;" style="html=1;shape=mxgraph.electrical.electro-mechanical.pushbutton;aspect=fixed;elSwitchState=off;" parent="1" vertex="1">
          <mxGeometry x="407" y="40" width="75" height="20" as="geometry" />
        </mxCell>
        <mxCell id="hghtYMn4fOt6xb_53WXP-6" value="RESET&lt;div&gt;BLACK&lt;/div&gt;&lt;div&gt;&lt;br&gt;&lt;/div&gt;&lt;div&gt;&lt;br&gt;&lt;/div&gt;&lt;div&gt;&lt;br&gt;&lt;/div&gt;" style="html=1;shape=mxgraph.electrical.electro-mechanical.pushbutton;aspect=fixed;elSwitchState=off;" parent="1" vertex="1">
          <mxGeometry x="507" y="40" width="75" height="20" as="geometry" />
        </mxCell>
        <mxCell id="hghtYMn4fOt6xb_53WXP-7" value="LCD" style="verticalLabelPosition=bottom;html=1;verticalAlign=top;align=center;shape=mxgraph.floorplan.crt_tv;" parent="1" vertex="1">
          <mxGeometry x="660" y="240" width="60" height="40" as="geometry" />
        </mxCell>
        <mxCell id="hghtYMn4fOt6xb_53WXP-8" value="LCD" style="verticalLabelPosition=bottom;html=1;verticalAlign=top;align=center;shape=mxgraph.floorplan.crt_tv;" parent="1" vertex="1">
          <mxGeometry x="665" y="160" width="60" height="40" as="geometry" />
        </mxCell>
        <mxCell id="hghtYMn4fOt6xb_53WXP-9" style="rounded=0;orthogonalLoop=1;jettySize=auto;html=1;exitX=1;exitY=0.8;exitDx=0;exitDy=0;entryX=0.5;entryY=0;entryDx=0;entryDy=0;entryPerimeter=0;startArrow=oval;startFill=1;endArrow=oval;endFill=1;" parent="1" source="hghtYMn4fOt6xb_53WXP-3" target="hghtYMn4fOt6xb_53WXP-12" edge="1">
          <mxGeometry relative="1" as="geometry" />
        </mxCell>
        <mxCell id="hghtYMn4fOt6xb_53WXP-12" value="ground" style="pointerEvents=1;verticalLabelPosition=bottom;shadow=0;dashed=0;align=center;html=1;verticalAlign=top;shape=mxgraph.electrical.signal_sources.signal_ground;" parent="1" vertex="1">
          <mxGeometry x="620" y="110" width="45" height="30" as="geometry" />
        </mxCell>
        <mxCell id="hghtYMn4fOt6xb_53WXP-13" style="rounded=0;orthogonalLoop=1;jettySize=auto;html=1;exitX=1;exitY=0.8;exitDx=0;exitDy=0;entryX=0.5;entryY=0;entryDx=0;entryDy=0;entryPerimeter=0;startArrow=oval;startFill=1;endArrow=oval;endFill=1;" parent="1" source="hghtYMn4fOt6xb_53WXP-4" target="hghtYMn4fOt6xb_53WXP-12" edge="1">
          <mxGeometry relative="1" as="geometry" />
        </mxCell>
        <mxCell id="hghtYMn4fOt6xb_53WXP-14" style="rounded=0;orthogonalLoop=1;jettySize=auto;html=1;entryX=0.5;entryY=0;entryDx=0;entryDy=0;entryPerimeter=0;exitX=1;exitY=0.8;exitDx=0;exitDy=0;startArrow=oval;startFill=1;endArrow=oval;endFill=1;" parent="1" source="hghtYMn4fOt6xb_53WXP-5" target="hghtYMn4fOt6xb_53WXP-12" edge="1">
          <mxGeometry relative="1" as="geometry">
            <mxPoint x="430" y="70" as="sourcePoint" />
          </mxGeometry>
        </mxCell>
        <mxCell id="hghtYMn4fOt6xb_53WXP-15" style="rounded=0;orthogonalLoop=1;jettySize=auto;html=1;entryX=0.5;entryY=0;entryDx=0;entryDy=0;entryPerimeter=0;exitX=1;exitY=0.8;exitDx=0;exitDy=0;endArrow=oval;endFill=1;startArrow=oval;startFill=1;" parent="1" source="hghtYMn4fOt6xb_53WXP-6" target="hghtYMn4fOt6xb_53WXP-12" edge="1">
          <mxGeometry relative="1" as="geometry">
            <mxPoint x="523" y="60" as="sourcePoint" />
          </mxGeometry>
        </mxCell>
        <mxCell id="hghtYMn4fOt6xb_53WXP-16" value="" style="rounded=0;orthogonalLoop=1;jettySize=auto;html=1;startArrow=oval;startFill=1;endArrow=oval;endFill=1;exitX=0;exitY=0.8;exitDx=0;exitDy=0;entryX=0.5;entryY=0;entryDx=0;entryDy=0;" parent="1" source="hghtYMn4fOt6xb_53WXP-4" target="hghtYMn4fOt6xb_53WXP-1" edge="1">
          <mxGeometry relative="1" as="geometry">
            <mxPoint x="205" y="66" as="sourcePoint" />
            <mxPoint x="140" y="200" as="targetPoint" />
          </mxGeometry>
        </mxCell>
        <mxCell id="hghtYMn4fOt6xb_53WXP-90" value="50" style="edgeLabel;html=1;align=center;verticalAlign=middle;resizable=0;points=[];" parent="hghtYMn4fOt6xb_53WXP-16" vertex="1" connectable="0">
          <mxGeometry x="0.7513" y="4" relative="1" as="geometry">
            <mxPoint as="offset" />
          </mxGeometry>
        </mxCell>
        <mxCell id="hghtYMn4fOt6xb_53WXP-17" value="" style="rounded=0;orthogonalLoop=1;jettySize=auto;html=1;startArrow=oval;startFill=1;endArrow=oval;endFill=1;exitX=0;exitY=0.8;exitDx=0;exitDy=0;entryX=0.75;entryY=0;entryDx=0;entryDy=0;" parent="1" source="hghtYMn4fOt6xb_53WXP-5" target="hghtYMn4fOt6xb_53WXP-1" edge="1">
          <mxGeometry relative="1" as="geometry">
            <mxPoint x="312" y="66" as="sourcePoint" />
            <mxPoint x="160" y="210" as="targetPoint" />
            <Array as="points" />
          </mxGeometry>
        </mxCell>
        <mxCell id="hghtYMn4fOt6xb_53WXP-91" value="48" style="edgeLabel;html=1;align=center;verticalAlign=middle;resizable=0;points=[];" parent="hghtYMn4fOt6xb_53WXP-17" vertex="1" connectable="0">
          <mxGeometry x="0.6001" y="1" relative="1" as="geometry">
            <mxPoint as="offset" />
          </mxGeometry>
        </mxCell>
        <mxCell id="hghtYMn4fOt6xb_53WXP-18" value="RESET" style="rounded=0;orthogonalLoop=1;jettySize=auto;html=1;startArrow=oval;startFill=1;endArrow=oval;endFill=1;exitX=0;exitY=0.8;exitDx=0;exitDy=0;entryX=1;entryY=0;entryDx=0;entryDy=0;" parent="1" source="hghtYMn4fOt6xb_53WXP-6" target="hghtYMn4fOt6xb_53WXP-1" edge="1">
          <mxGeometry relative="1" as="geometry">
            <mxPoint x="417" y="66" as="sourcePoint" />
            <mxPoint x="160" y="220" as="targetPoint" />
          </mxGeometry>
        </mxCell>
        <mxCell id="hghtYMn4fOt6xb_53WXP-25" value="BUZZER" style="pointerEvents=1;verticalLabelPosition=bottom;shadow=0;dashed=0;align=center;html=1;verticalAlign=top;shape=mxgraph.electrical.electro-mechanical.buzzer;" parent="1" vertex="1">
          <mxGeometry x="40" y="220" width="45" height="60" as="geometry" />
        </mxCell>
        <mxCell id="hghtYMn4fOt6xb_53WXP-26" value="ground" style="pointerEvents=1;verticalLabelPosition=bottom;shadow=0;dashed=0;align=center;html=1;verticalAlign=top;shape=mxgraph.electrical.signal_sources.signal_ground;" parent="1" vertex="1">
          <mxGeometry x="40" y="380" width="45" height="30" as="geometry" />
        </mxCell>
        <mxCell id="hghtYMn4fOt6xb_53WXP-27" value="" style="rounded=0;orthogonalLoop=1;jettySize=auto;html=1;entryX=0.5;entryY=0;entryDx=0;entryDy=0;startArrow=oval;startFill=1;endArrow=oval;endFill=1;exitX=1;exitY=0.665;exitDx=0;exitDy=0;exitPerimeter=0;entryPerimeter=0;" parent="1" source="hghtYMn4fOt6xb_53WXP-25" target="hghtYMn4fOt6xb_53WXP-26" edge="1">
          <mxGeometry x="-0.0075" relative="1" as="geometry">
            <mxPoint x="204.5" y="67" as="sourcePoint" />
            <mxPoint x="200" y="211" as="targetPoint" />
            <mxPoint as="offset" />
          </mxGeometry>
        </mxCell>
        <mxCell id="hghtYMn4fOt6xb_53WXP-28" value="" style="rounded=0;orthogonalLoop=1;jettySize=auto;html=1;startArrow=oval;startFill=1;endArrow=oval;endFill=1;exitX=1;exitY=0.335;exitDx=0;exitDy=0;exitPerimeter=0;" parent="1" edge="1">
          <mxGeometry x="-0.0075" relative="1" as="geometry">
            <mxPoint x="86" y="240.10000000000002" as="sourcePoint" />
            <mxPoint x="270.5" y="248.23608017817378" as="targetPoint" />
            <mxPoint as="offset" />
          </mxGeometry>
        </mxCell>
        <mxCell id="hghtYMn4fOt6xb_53WXP-87" value="+" style="edgeLabel;html=1;align=center;verticalAlign=middle;resizable=0;points=[];" parent="hghtYMn4fOt6xb_53WXP-28" vertex="1" connectable="0">
          <mxGeometry x="-0.715" y="4" relative="1" as="geometry">
            <mxPoint as="offset" />
          </mxGeometry>
        </mxCell>
        <mxCell id="hghtYMn4fOt6xb_53WXP-88" value="&amp;nbsp;PWM 4" style="edgeLabel;html=1;align=center;verticalAlign=middle;resizable=0;points=[];" parent="hghtYMn4fOt6xb_53WXP-28" vertex="1" connectable="0">
          <mxGeometry x="0.7787" y="1" relative="1" as="geometry">
            <mxPoint x="-2" as="offset" />
          </mxGeometry>
        </mxCell>
        <mxCell id="hghtYMn4fOt6xb_53WXP-29" value="LDR" style="verticalLabelPosition=bottom;shadow=0;dashed=0;align=center;html=1;verticalAlign=top;shape=mxgraph.electrical.thermionic_devices.photocell;" parent="1" vertex="1">
          <mxGeometry x="212" y="440" width="40" height="40" as="geometry" />
        </mxCell>
        <mxCell id="hghtYMn4fOt6xb_53WXP-30" value="LDR" style="verticalLabelPosition=bottom;shadow=0;dashed=0;align=center;html=1;verticalAlign=top;shape=mxgraph.electrical.thermionic_devices.photocell;" parent="1" vertex="1">
          <mxGeometry x="309.5" y="440" width="40" height="40" as="geometry" />
        </mxCell>
        <mxCell id="hghtYMn4fOt6xb_53WXP-31" value="+5v" style="verticalLabelPosition=bottom;shadow=0;dashed=0;align=center;html=1;verticalAlign=top;strokeWidth=1;shape=ellipse;perimeter=ellipsePerimeter;" parent="1" vertex="1">
          <mxGeometry x="260" y="517" width="30" height="28" as="geometry" />
        </mxCell>
        <mxCell id="hghtYMn4fOt6xb_53WXP-35" value="" style="rounded=0;orthogonalLoop=1;jettySize=auto;html=1;entryX=0.5;entryY=0;entryDx=0;entryDy=0;startArrow=oval;startFill=1;endArrow=oval;endFill=1;exitX=0.64;exitY=1;exitDx=0;exitDy=0;exitPerimeter=0;" parent="1" source="hghtYMn4fOt6xb_53WXP-30" target="hghtYMn4fOt6xb_53WXP-31" edge="1">
          <mxGeometry x="-0.0075" relative="1" as="geometry">
            <mxPoint x="124.5" y="352" as="sourcePoint" />
            <mxPoint x="122.5" y="392" as="targetPoint" />
            <mxPoint as="offset" />
          </mxGeometry>
        </mxCell>
        <mxCell id="hghtYMn4fOt6xb_53WXP-37" value="" style="rounded=0;orthogonalLoop=1;jettySize=auto;html=1;entryX=0.5;entryY=0;entryDx=0;entryDy=0;startArrow=oval;startFill=1;endArrow=oval;endFill=1;exitX=0.36;exitY=1;exitDx=0;exitDy=0;exitPerimeter=0;" parent="1" source="hghtYMn4fOt6xb_53WXP-29" target="hghtYMn4fOt6xb_53WXP-31" edge="1">
          <mxGeometry x="-0.0075" relative="1" as="geometry">
            <mxPoint x="319.5" y="442" as="sourcePoint" />
            <mxPoint x="344.5" y="492" as="targetPoint" />
            <mxPoint as="offset" />
          </mxGeometry>
        </mxCell>
        <mxCell id="hghtYMn4fOt6xb_53WXP-38" value="2k ohm" style="verticalLabelPosition=bottom;shadow=0;dashed=0;align=center;html=1;verticalAlign=top;strokeWidth=1;shape=mxgraph.electrical.resistors.resistor_2;rounded=1;comic=0;labelBackgroundColor=none;fontFamily=Verdana;fontSize=12;" parent="1" vertex="1">
          <mxGeometry x="269.5" y="340" width="80" height="20" as="geometry" />
        </mxCell>
        <mxCell id="hghtYMn4fOt6xb_53WXP-40" value="" style="rounded=0;orthogonalLoop=1;jettySize=auto;html=1;entryX=0;entryY=0.5;entryDx=0;entryDy=0;startArrow=oval;startFill=1;endArrow=oval;endFill=1;exitX=0.5;exitY=0;exitDx=0;exitDy=0;exitPerimeter=0;entryPerimeter=0;" parent="1" source="hghtYMn4fOt6xb_53WXP-26" target="hghtYMn4fOt6xb_53WXP-38" edge="1">
          <mxGeometry x="-0.0075" relative="1" as="geometry">
            <mxPoint x="320" y="442" as="sourcePoint" />
            <mxPoint x="345" y="492" as="targetPoint" />
            <mxPoint as="offset" />
          </mxGeometry>
        </mxCell>
        <mxCell id="hghtYMn4fOt6xb_53WXP-41" value="red" style="rounded=0;orthogonalLoop=1;jettySize=auto;html=1;entryX=0;entryY=0.57;entryDx=0;entryDy=0;startArrow=oval;startFill=1;endArrow=oval;endFill=1;entryPerimeter=0;" parent="1" target="hghtYMn4fOt6xb_53WXP-56" edge="1">
          <mxGeometry x="-0.0075" relative="1" as="geometry">
            <mxPoint x="590" y="320" as="sourcePoint" />
            <mxPoint x="682.5" y="450" as="targetPoint" />
            <mxPoint as="offset" />
          </mxGeometry>
        </mxCell>
        <mxCell id="hghtYMn4fOt6xb_53WXP-43" value="" style="rounded=0;orthogonalLoop=1;jettySize=auto;html=1;entryX=0;entryY=0.5;entryDx=0;entryDy=0;startArrow=oval;startFill=1;endArrow=oval;endFill=1;entryPerimeter=0;" parent="1" target="hghtYMn4fOt6xb_53WXP-59" edge="1">
          <mxGeometry x="-0.0075" relative="1" as="geometry">
            <mxPoint x="350" y="240" as="sourcePoint" />
            <mxPoint x="461" y="335" as="targetPoint" />
            <mxPoint as="offset" />
          </mxGeometry>
        </mxCell>
        <mxCell id="hghtYMn4fOt6xb_53WXP-92" value="PWM 6" style="edgeLabel;html=1;align=center;verticalAlign=middle;resizable=0;points=[];" parent="hghtYMn4fOt6xb_53WXP-43" vertex="1" connectable="0">
          <mxGeometry x="-0.7982" y="2" relative="1" as="geometry">
            <mxPoint x="-4" as="offset" />
          </mxGeometry>
        </mxCell>
        <mxCell id="hghtYMn4fOt6xb_53WXP-44" value="" style="rounded=0;orthogonalLoop=1;jettySize=auto;html=1;startArrow=oval;startFill=1;endArrow=oval;endFill=1;entryX=0.893;entryY=0.467;entryDx=0;entryDy=0;entryPerimeter=0;exitX=0.25;exitY=1;exitDx=0;exitDy=0;" parent="1" source="hghtYMn4fOt6xb_53WXP-1" target="hghtYMn4fOt6xb_53WXP-49" edge="1">
          <mxGeometry x="-0.0014" relative="1" as="geometry">
            <mxPoint x="270" y="280" as="sourcePoint" />
            <mxPoint x="230" y="330" as="targetPoint" />
            <mxPoint as="offset" />
          </mxGeometry>
        </mxCell>
        <mxCell id="hghtYMn4fOt6xb_53WXP-95" value="A0" style="edgeLabel;html=1;align=center;verticalAlign=middle;resizable=0;points=[];" parent="hghtYMn4fOt6xb_53WXP-44" vertex="1" connectable="0">
          <mxGeometry x="-0.6492" relative="1" as="geometry">
            <mxPoint as="offset" />
          </mxGeometry>
        </mxCell>
        <mxCell id="hghtYMn4fOt6xb_53WXP-45" value="" style="rounded=0;orthogonalLoop=1;jettySize=auto;html=1;entryX=1;entryY=0.5;entryDx=0;entryDy=0;startArrow=oval;startFill=1;endArrow=oval;endFill=1;exitX=0.5;exitY=1;exitDx=0;exitDy=0;entryPerimeter=0;" parent="1" source="hghtYMn4fOt6xb_53WXP-1" target="hghtYMn4fOt6xb_53WXP-38" edge="1">
          <mxGeometry x="-0.0015" relative="1" as="geometry">
            <mxPoint x="130" y="456" as="sourcePoint" />
            <mxPoint x="155" y="506" as="targetPoint" />
            <Array as="points" />
            <mxPoint as="offset" />
          </mxGeometry>
        </mxCell>
        <mxCell id="hghtYMn4fOt6xb_53WXP-96" value="A1" style="edgeLabel;html=1;align=center;verticalAlign=middle;resizable=0;points=[];" parent="hghtYMn4fOt6xb_53WXP-45" vertex="1" connectable="0">
          <mxGeometry x="-0.5177" y="1" relative="1" as="geometry">
            <mxPoint x="-1" as="offset" />
          </mxGeometry>
        </mxCell>
        <mxCell id="hghtYMn4fOt6xb_53WXP-46" value="" style="rounded=0;orthogonalLoop=1;jettySize=auto;html=1;entryX=0.5;entryY=0.11;entryDx=0;entryDy=0;startArrow=oval;startFill=1;endArrow=oval;endFill=1;exitX=1;exitY=0.5;exitDx=0;exitDy=0;exitPerimeter=0;entryPerimeter=0;" parent="1" source="hghtYMn4fOt6xb_53WXP-38" target="hghtYMn4fOt6xb_53WXP-30" edge="1">
          <mxGeometry x="-0.0075" relative="1" as="geometry">
            <mxPoint x="140" y="466" as="sourcePoint" />
            <mxPoint x="165" y="516" as="targetPoint" />
            <mxPoint as="offset" />
          </mxGeometry>
        </mxCell>
        <mxCell id="hghtYMn4fOt6xb_53WXP-47" value="" style="rounded=0;orthogonalLoop=1;jettySize=auto;html=1;entryX=0.5;entryY=0.11;entryDx=0;entryDy=0;startArrow=oval;startFill=1;endArrow=oval;endFill=1;entryPerimeter=0;exitX=1;exitY=0.5;exitDx=0;exitDy=0;exitPerimeter=0;" parent="1" source="hghtYMn4fOt6xb_53WXP-49" target="hghtYMn4fOt6xb_53WXP-29" edge="1">
          <mxGeometry x="-0.0075" relative="1" as="geometry">
            <mxPoint x="160" y="470" as="sourcePoint" />
            <mxPoint x="185" y="520" as="targetPoint" />
            <mxPoint as="offset" />
          </mxGeometry>
        </mxCell>
        <mxCell id="hghtYMn4fOt6xb_53WXP-48" value="" style="rounded=0;orthogonalLoop=1;jettySize=auto;html=1;startArrow=oval;startFill=1;endArrow=oval;endFill=1;exitX=0.5;exitY=0;exitDx=0;exitDy=0;exitPerimeter=0;entryX=0;entryY=0.5;entryDx=0;entryDy=0;entryPerimeter=0;" parent="1" source="hghtYMn4fOt6xb_53WXP-26" target="hghtYMn4fOt6xb_53WXP-49" edge="1">
          <mxGeometry x="-0.0075" relative="1" as="geometry">
            <mxPoint x="150" y="476" as="sourcePoint" />
            <mxPoint x="175" y="526" as="targetPoint" />
            <mxPoint as="offset" />
          </mxGeometry>
        </mxCell>
        <mxCell id="hghtYMn4fOt6xb_53WXP-49" value="2k ohm" style="verticalLabelPosition=bottom;shadow=0;dashed=0;align=center;html=1;verticalAlign=top;strokeWidth=1;shape=mxgraph.electrical.resistors.resistor_2;rounded=1;comic=0;labelBackgroundColor=none;fontFamily=Verdana;fontSize=12;" parent="1" vertex="1">
          <mxGeometry x="140" y="370" width="100" height="20" as="geometry" />
        </mxCell>
        <mxCell id="hghtYMn4fOt6xb_53WXP-56" value="RGB LED" style="verticalLabelPosition=bottom;shadow=0;dashed=0;align=center;html=1;verticalAlign=top;shape=mxgraph.electrical.opto_electronics.led_2;pointerEvents=1;" parent="1" vertex="1">
          <mxGeometry x="670" y="300" width="80" height="50" as="geometry" />
        </mxCell>
        <mxCell id="hghtYMn4fOt6xb_53WXP-57" value="ground" style="pointerEvents=1;verticalLabelPosition=bottom;shadow=0;dashed=0;align=center;html=1;verticalAlign=top;shape=mxgraph.electrical.signal_sources.signal_ground;" parent="1" vertex="1">
          <mxGeometry x="769" y="325" width="45" height="30" as="geometry" />
        </mxCell>
        <mxCell id="hghtYMn4fOt6xb_53WXP-58" value="" style="rounded=0;orthogonalLoop=1;jettySize=auto;html=1;entryX=0.5;entryY=0;entryDx=0;entryDy=0;startArrow=oval;startFill=1;endArrow=oval;endFill=1;exitX=1;exitY=0.57;exitDx=0;exitDy=0;exitPerimeter=0;entryPerimeter=0;" parent="1" source="hghtYMn4fOt6xb_53WXP-56" target="hghtYMn4fOt6xb_53WXP-57" edge="1">
          <mxGeometry x="-0.0075" relative="1" as="geometry">
            <mxPoint x="319" y="381" as="sourcePoint" />
            <mxPoint x="344" y="431" as="targetPoint" />
            <mxPoint as="offset" />
          </mxGeometry>
        </mxCell>
        <mxCell id="hghtYMn4fOt6xb_53WXP-59" value="&amp;nbsp;145 ohm" style="verticalLabelPosition=bottom;shadow=0;dashed=0;align=center;html=1;verticalAlign=top;strokeWidth=1;shape=mxgraph.electrical.resistors.resistor_2;rounded=1;comic=0;labelBackgroundColor=none;fontFamily=Verdana;fontSize=12;" parent="1" vertex="1">
          <mxGeometry x="507" y="310" width="80" height="20" as="geometry" />
        </mxCell>
        <mxCell id="hghtYMn4fOt6xb_53WXP-60" value="1k ohm" style="verticalLabelPosition=bottom;shadow=0;dashed=0;align=center;html=1;verticalAlign=top;strokeWidth=1;shape=mxgraph.electrical.resistors.resistor_2;rounded=1;comic=0;labelBackgroundColor=none;fontFamily=Verdana;fontSize=12;" parent="1" vertex="1">
          <mxGeometry x="504.5" y="370" width="80" height="20" as="geometry" />
        </mxCell>
        <mxCell id="hghtYMn4fOt6xb_53WXP-61" value="430 ohm" style="verticalLabelPosition=bottom;shadow=0;dashed=0;align=center;html=1;verticalAlign=top;strokeWidth=1;shape=mxgraph.electrical.resistors.resistor_2;rounded=1;comic=0;labelBackgroundColor=none;fontFamily=Verdana;fontSize=12;" parent="1" vertex="1">
          <mxGeometry x="510" y="430" width="80" height="20" as="geometry" />
        </mxCell>
        <mxCell id="hghtYMn4fOt6xb_53WXP-62" value="" style="rounded=0;orthogonalLoop=1;jettySize=auto;html=1;entryX=0;entryY=0.5;entryDx=0;entryDy=0;startArrow=oval;startFill=1;endArrow=oval;endFill=1;entryPerimeter=0;exitX=1;exitY=0.75;exitDx=0;exitDy=0;" parent="1" source="hghtYMn4fOt6xb_53WXP-1" target="hghtYMn4fOt6xb_53WXP-60" edge="1">
          <mxGeometry x="-0.0075" relative="1" as="geometry">
            <mxPoint x="350" y="250" as="sourcePoint" />
            <mxPoint x="517" y="330" as="targetPoint" />
            <mxPoint as="offset" />
          </mxGeometry>
        </mxCell>
        <mxCell id="hghtYMn4fOt6xb_53WXP-93" value="PWM 7" style="edgeLabel;html=1;align=center;verticalAlign=middle;resizable=0;points=[];" parent="hghtYMn4fOt6xb_53WXP-62" vertex="1" connectable="0">
          <mxGeometry x="-0.8415" relative="1" as="geometry">
            <mxPoint y="-1" as="offset" />
          </mxGeometry>
        </mxCell>
        <mxCell id="hghtYMn4fOt6xb_53WXP-63" value="" style="rounded=0;orthogonalLoop=1;jettySize=auto;html=1;entryX=0;entryY=0.5;entryDx=0;entryDy=0;startArrow=oval;startFill=1;endArrow=oval;endFill=1;entryPerimeter=0;" parent="1" target="hghtYMn4fOt6xb_53WXP-61" edge="1">
          <mxGeometry x="-0.0075" relative="1" as="geometry">
            <mxPoint x="350" y="290" as="sourcePoint" />
            <mxPoint x="515" y="390" as="targetPoint" />
            <mxPoint as="offset" />
          </mxGeometry>
        </mxCell>
        <mxCell id="hghtYMn4fOt6xb_53WXP-94" value="PWM 8" style="edgeLabel;html=1;align=center;verticalAlign=middle;resizable=0;points=[];" parent="hghtYMn4fOt6xb_53WXP-63" vertex="1" connectable="0">
          <mxGeometry x="-0.8531" relative="1" as="geometry">
            <mxPoint y="-1" as="offset" />
          </mxGeometry>
        </mxCell>
        <mxCell id="hghtYMn4fOt6xb_53WXP-64" value="green" style="rounded=0;orthogonalLoop=1;jettySize=auto;html=1;entryX=0;entryY=0.57;entryDx=0;entryDy=0;startArrow=oval;startFill=1;endArrow=oval;endFill=1;exitX=1;exitY=0.5;exitDx=0;exitDy=0;exitPerimeter=0;entryPerimeter=0;" parent="1" source="hghtYMn4fOt6xb_53WXP-60" target="hghtYMn4fOt6xb_53WXP-56" edge="1">
          <mxGeometry x="-0.0075" relative="1" as="geometry">
            <mxPoint x="667.5" y="410" as="sourcePoint" />
            <mxPoint x="692.5" y="460" as="targetPoint" />
            <mxPoint as="offset" />
          </mxGeometry>
        </mxCell>
        <mxCell id="hghtYMn4fOt6xb_53WXP-65" value="blue" style="rounded=0;orthogonalLoop=1;jettySize=auto;html=1;entryX=0;entryY=0.57;entryDx=0;entryDy=0;startArrow=oval;startFill=1;endArrow=oval;endFill=1;exitX=1;exitY=0.5;exitDx=0;exitDy=0;exitPerimeter=0;entryPerimeter=0;" parent="1" source="hghtYMn4fOt6xb_53WXP-61" target="hghtYMn4fOt6xb_53WXP-56" edge="1">
          <mxGeometry x="-0.0075" relative="1" as="geometry">
            <mxPoint x="677.5" y="420" as="sourcePoint" />
            <mxPoint x="702.5" y="470" as="targetPoint" />
            <mxPoint as="offset" />
          </mxGeometry>
        </mxCell>
        <mxCell id="hghtYMn4fOt6xb_53WXP-73" value="SDA" style="rounded=0;orthogonalLoop=1;jettySize=auto;html=1;startArrow=oval;startFill=1;endArrow=oval;endFill=1;exitX=0.981;exitY=0.133;exitDx=0;exitDy=0;exitPerimeter=0;" parent="1" source="hghtYMn4fOt6xb_53WXP-1" edge="1">
          <mxGeometry x="-0.0075" relative="1" as="geometry">
            <mxPoint x="358" y="268" as="sourcePoint" />
            <mxPoint x="480" y="180" as="targetPoint" />
            <mxPoint as="offset" />
          </mxGeometry>
        </mxCell>
        <mxCell id="hghtYMn4fOt6xb_53WXP-74" value="SCL" style="rounded=0;orthogonalLoop=1;jettySize=auto;html=1;startArrow=oval;startFill=1;endArrow=oval;endFill=1;" parent="1" edge="1">
          <mxGeometry x="-0.0075" relative="1" as="geometry">
            <mxPoint x="350" y="220" as="sourcePoint" />
            <mxPoint x="480" y="230" as="targetPoint" />
            <mxPoint as="offset" />
          </mxGeometry>
        </mxCell>
        <mxCell id="hghtYMn4fOt6xb_53WXP-75" value="ground" style="pointerEvents=1;verticalLabelPosition=bottom;shadow=0;dashed=0;align=center;html=1;verticalAlign=top;shape=mxgraph.electrical.signal_sources.signal_ground;" parent="1" vertex="1">
          <mxGeometry x="784" y="245" width="45" height="30" as="geometry" />
        </mxCell>
        <mxCell id="hghtYMn4fOt6xb_53WXP-76" value="+5v" style="verticalLabelPosition=bottom;shadow=0;dashed=0;align=center;html=1;verticalAlign=top;strokeWidth=1;shape=ellipse;perimeter=ellipsePerimeter;" parent="1" vertex="1">
          <mxGeometry x="784" y="120" width="30" height="28" as="geometry" />
        </mxCell>
        <mxCell id="hghtYMn4fOt6xb_53WXP-77" value="GND" style="rounded=0;orthogonalLoop=1;jettySize=auto;html=1;startArrow=oval;startFill=1;endArrow=oval;endFill=1;entryX=0.5;entryY=0;entryDx=0;entryDy=0;entryPerimeter=0;exitX=0.956;exitY=0.909;exitDx=0;exitDy=0;exitPerimeter=0;" parent="1" source="hghtYMn4fOt6xb_53WXP-7" target="hghtYMn4fOt6xb_53WXP-75" edge="1">
          <mxGeometry x="-0.0075" relative="1" as="geometry">
            <mxPoint x="730" y="270" as="sourcePoint" />
            <mxPoint x="490" y="240" as="targetPoint" />
            <mxPoint as="offset" />
          </mxGeometry>
        </mxCell>
        <mxCell id="hghtYMn4fOt6xb_53WXP-78" value="GND" style="rounded=0;orthogonalLoop=1;jettySize=auto;html=1;startArrow=oval;startFill=1;endArrow=oval;endFill=1;entryX=0.5;entryY=0;entryDx=0;entryDy=0;entryPerimeter=0;" parent="1" source="hghtYMn4fOt6xb_53WXP-8" target="hghtYMn4fOt6xb_53WXP-75" edge="1">
          <mxGeometry x="-0.0075" relative="1" as="geometry">
            <mxPoint x="722" y="270" as="sourcePoint" />
            <mxPoint x="760" y="240" as="targetPoint" />
            <mxPoint as="offset" />
          </mxGeometry>
        </mxCell>
        <mxCell id="hghtYMn4fOt6xb_53WXP-79" value="VCC" style="rounded=0;orthogonalLoop=1;jettySize=auto;html=1;startArrow=oval;startFill=1;endArrow=oval;endFill=1;entryX=0.5;entryY=1;entryDx=0;entryDy=0;exitX=0.833;exitY=0;exitDx=0;exitDy=0;exitPerimeter=0;" parent="1" source="hghtYMn4fOt6xb_53WXP-7" target="hghtYMn4fOt6xb_53WXP-76" edge="1">
          <mxGeometry x="-0.0075" relative="1" as="geometry">
            <mxPoint x="710" y="260" as="sourcePoint" />
            <mxPoint x="773" y="245" as="targetPoint" />
            <mxPoint as="offset" />
          </mxGeometry>
        </mxCell>
        <mxCell id="hghtYMn4fOt6xb_53WXP-80" value="VCC" style="rounded=0;orthogonalLoop=1;jettySize=auto;html=1;startArrow=oval;startFill=1;endArrow=oval;endFill=1;entryX=0.5;entryY=1;entryDx=0;entryDy=0;exitX=0.899;exitY=0.184;exitDx=0;exitDy=0;exitPerimeter=0;" parent="1" source="hghtYMn4fOt6xb_53WXP-8" target="hghtYMn4fOt6xb_53WXP-76" edge="1">
          <mxGeometry x="-0.0075" relative="1" as="geometry">
            <mxPoint x="720" y="270" as="sourcePoint" />
            <mxPoint x="775" y="178" as="targetPoint" />
            <mxPoint as="offset" />
          </mxGeometry>
        </mxCell>
        <mxCell id="hghtYMn4fOt6xb_53WXP-81" value="" style="rounded=0;orthogonalLoop=1;jettySize=auto;html=1;startArrow=oval;startFill=1;endArrow=oval;endFill=1;" parent="1" edge="1">
          <mxGeometry x="-0.0075" relative="1" as="geometry">
            <mxPoint x="480" y="180" as="sourcePoint" />
            <mxPoint x="671" y="174" as="targetPoint" />
            <mxPoint as="offset" />
          </mxGeometry>
        </mxCell>
        <mxCell id="hghtYMn4fOt6xb_53WXP-97" value="SDA" style="edgeLabel;html=1;align=center;verticalAlign=middle;resizable=0;points=[];" parent="hghtYMn4fOt6xb_53WXP-81" vertex="1" connectable="0">
          <mxGeometry x="0.8331" y="2" relative="1" as="geometry">
            <mxPoint as="offset" />
          </mxGeometry>
        </mxCell>
        <mxCell id="hghtYMn4fOt6xb_53WXP-82" value="" style="rounded=0;orthogonalLoop=1;jettySize=auto;html=1;startArrow=oval;startFill=1;endArrow=oval;endFill=1;entryX=0.158;entryY=0.223;entryDx=0;entryDy=0;entryPerimeter=0;" parent="1" target="hghtYMn4fOt6xb_53WXP-7" edge="1">
          <mxGeometry x="-0.0075" relative="1" as="geometry">
            <mxPoint x="480" y="180" as="sourcePoint" />
            <mxPoint x="673" y="201" as="targetPoint" />
            <mxPoint as="offset" />
          </mxGeometry>
        </mxCell>
        <mxCell id="hghtYMn4fOt6xb_53WXP-101" value="SDA" style="edgeLabel;html=1;align=center;verticalAlign=middle;resizable=0;points=[];" parent="hghtYMn4fOt6xb_53WXP-82" vertex="1" connectable="0">
          <mxGeometry x="0.7753" y="-1" relative="1" as="geometry">
            <mxPoint as="offset" />
          </mxGeometry>
        </mxCell>
        <mxCell id="hghtYMn4fOt6xb_53WXP-84" value="" style="rounded=0;orthogonalLoop=1;jettySize=auto;html=1;startArrow=oval;startFill=1;endArrow=oval;endFill=1;" parent="1" edge="1">
          <mxGeometry x="-0.0075" relative="1" as="geometry">
            <mxPoint x="480" y="230" as="sourcePoint" />
            <mxPoint x="667" y="264" as="targetPoint" />
            <mxPoint as="offset" />
          </mxGeometry>
        </mxCell>
        <mxCell id="hghtYMn4fOt6xb_53WXP-99" value="SCL" style="edgeLabel;html=1;align=center;verticalAlign=middle;resizable=0;points=[];" parent="hghtYMn4fOt6xb_53WXP-84" vertex="1" connectable="0">
          <mxGeometry x="0.8352" y="-1" relative="1" as="geometry">
            <mxPoint as="offset" />
          </mxGeometry>
        </mxCell>
        <mxCell id="hghtYMn4fOt6xb_53WXP-86" value="&lt;i&gt;&amp;nbsp;145 ohm=parallel(423, 220 ohm)&lt;/i&gt;" style="verticalLabelPosition=bottom;shadow=0;dashed=0;align=center;html=1;verticalAlign=top;strokeWidth=1;shape=mxgraph.electrical.resistors.resistor_2;rounded=1;comic=0;labelBackgroundColor=none;fontFamily=Verdana;fontSize=12;" parent="1" vertex="1">
          <mxGeometry x="511" y="507" width="80" height="20" as="geometry" />
        </mxCell>
        <mxCell id="hghtYMn4fOt6xb_53WXP-102" value="" style="rounded=0;orthogonalLoop=1;jettySize=auto;html=1;entryX=0.036;entryY=0.909;entryDx=0;entryDy=0;startArrow=oval;startFill=1;endArrow=oval;endFill=1;entryPerimeter=0;" parent="1" target="hghtYMn4fOt6xb_53WXP-8" edge="1">
          <mxGeometry x="-0.0075" relative="1" as="geometry">
            <mxPoint x="480" y="230" as="sourcePoint" />
            <mxPoint x="73" y="390" as="targetPoint" />
            <mxPoint as="offset" />
          </mxGeometry>
        </mxCell>
        <mxCell id="hghtYMn4fOt6xb_53WXP-103" value="SCL" style="edgeLabel;html=1;align=center;verticalAlign=middle;resizable=0;points=[];" parent="hghtYMn4fOt6xb_53WXP-102" vertex="1" connectable="0">
          <mxGeometry x="0.7255" y="-3" relative="1" as="geometry">
            <mxPoint x="1" as="offset" />
          </mxGeometry>
        </mxCell>
        <mxCell id="4ItP4Ga4wL2cA399L4YC-1" value="DIGITAL" style="text;html=1;align=center;verticalAlign=middle;whiteSpace=wrap;rounded=0;" vertex="1" parent="1">
          <mxGeometry x="289.5" y="148" width="60" height="30" as="geometry" />
        </mxCell>
      </root>
    </mxGraphModel>
  </diagram>
</mxfile>
